<svg width="160" height="160" viewBox="0 0 160 160" fill="none" xmlns="http://www.w3.org/2000/svg">
<g clip-path="url(#clip0_476_402)">
<path d="M151.418 137.667L119.723 137.744C117.818 137.747 116.35 136.688 115.79 134.912L103.461 92.102C103.144 91.1023 86.847 104.865 80.2548 104.82C72.2499 104.766 56.8578 90.6018 56.8578 90.6018C57.6647 91.4264 50.9873 114.034 50.6181 115.18L44.1466 135.125C43.7065 136.486 42.4607 137.683 40.912 137.686L9.2475 137.747C8.02536 137.751 7.06232 137.449 6.38204 136.676C5.68046 135.883 5.26164 134.639 5.65206 133.421L15.2174 103.599L26.7183 67.574C25.2324 60.0151 24.5119 52.4575 24.881 44.7543C25.075 40.6857 25.5553 36.6548 26.4072 32.669C26.6355 31.6077 26.936 30.6127 27.2294 29.5764C27.7583 27.6775 28.6823 25.1906 29.9127 23.6147C30.6888 22.6268 32.2517 22.1926 33.5129 22.3311C35.0213 22.4967 36.2825 22.9593 37.6088 23.6573C42.7848 26.3867 47.3611 29.9384 51.3623 34.0745C55.7232 38.5857 59.2867 43.6328 62.2326 49.0715C73.6897 45.9232 85.9573 45.9504 97.4428 48.991C101.114 43.0365 105.361 37.496 110.482 32.5755C112.63 30.5228 114.879 28.5967 117.305 26.8458C118.496 25.9868 119.709 25.2178 120.976 24.4725C122.465 23.5982 124.585 22.5831 126.254 22.2542H127.159C128.47 22.4576 129.704 23.0303 130.449 24.1282C131.757 26.0614 132.702 28.6547 133.295 30.8801C133.68 32.3235 134.016 33.7326 134.289 35.2103C134.895 38.4756 135.21 41.7587 135.311 45.0773C135.542 52.4599 134.671 59.8152 133.249 67.0569L138.798 84.4178L154.33 133.138C154.997 135.233 153.634 137.664 151.418 137.668V137.667Z" fill="#1A1A1A"/>
</g>
<defs>
<clipPath id="clip0_476_402">
<rect width="160" height="160" fill="white"/>
</clipPath>
</defs>
</svg>
